<svg xmlns="http://www.w3.org/2000/svg" width="1280" height="380" viewBox="0 0 1280 380">
<defs><linearGradient id="bg" x2="1" y2="1"><stop stop-color="#071019"/><stop offset="1" stop-color="#102a38"/></linearGradient><linearGradient id="edge"><stop stop-color="#74ff5c"/><stop offset="1" stop-color="#23e5ef"/></linearGradient><radialGradient id="glow"><stop stop-color="#16bac5" stop-opacity=".14"/><stop offset="1" stop-color="#16bac5" stop-opacity="0"/></radialGradient></defs>
<rect x="2" y="2" width="1276" height="376" rx="28" fill="url(#bg)" stroke="#aebecb" stroke-width="2"/>
<ellipse cx="1040" cy="190" rx="230" ry="185" fill="url(#glow)"/>
<path d="M48 322H1232" stroke="url(#edge)" stroke-width="2"/>
<text x="64" y="75" fill="#aebecb" font-family="sans-serif" font-size="18" letter-spacing="5">FG MACHINES</text>
<text x="60" y="169" fill="#74ff5c" font-family="sans-serif" font-size="76" font-weight="700">FG Remote</text>
<text x="64" y="221" fill="#e7f0f5" font-family="sans-serif" font-size="23">Your everyday infrared companion.</text>
<text x="64" y="279" fill="#28e2ef" font-family="sans-serif" font-size="16" letter-spacing="2">AIR CONDITIONERS / FANS / ANDROID</text>
<g transform="translate(968 64) scale(2.2)"><path d="M0,0h108v108h-108z" fill="#02070C"/><path d="M22,12h64q10,0 10,10v64q0,10 -10,10h-64q-10,0 -10,-10v-64q0,-10 10,-10z" fill="#071923" stroke="#3B6471" stroke-width="1"/><path d="M23,15h62q8,0 8,8v62q0,8 -8,8h-62q-8,0 -8,-8v-62q0,-8 8,-8z" fill="#081119" stroke="#D9D7D4" stroke-width="1.4"/><path d="M40,28Q54,14 68,28 M45,32Q54,23 63,32" fill="none" stroke="#1D4E5E" stroke-width="6" stroke-linecap="round"/><path d="M40,28Q54,14 68,28 M45,32Q54,23 63,32" fill="none" stroke="#43C6FF" stroke-width="2" stroke-linecap="round"/><path d="M40,39h32q5,0 5,5v42q0,5 -5,5h-32q-5,0 -5,-5v-42q0,-5 5,-5z" fill="#020507"/><path d="M37,35h32q5,0 5,5v43q0,5 -5,5h-32q-5,0 -5,-5v-43q0,-5 5,-5z" fill="#253843" stroke="#A9B9C4" stroke-width="1.5"/><path d="M38,38h28q5,0 5,5v37q0,5 -5,5h-28q-3,0 -3,-3v-41q0,-3 3,-3z" fill="#0B1B23"/><path d="M39,43h28v15h-28z" fill="#2B5546"/><path d="M42,46h9v3h-6v2h6v3h-9z M55,46h9v3h-6v2h6v3h-9z" fill="#9CFFD0"/><path d="M40,63h10v8h-10z M56,63h10v8h-10z" fill="#192F3C" stroke="#43C6FF" stroke-width="1"/><path d="M44,65h2v4h-2z M42,66h6v2h-6z M58,66h6v2h-6z" fill="#66E6A4"/><path d="M50,76a4,4 0,1 0,8 0a4,4 0,1 0,-8 0" fill="#F3B64E"/><path d="M53,73h2v4h-2z" fill="#17232D"/></g>
<text x="64" y="353" fill="#aebecb" font-family="sans-serif" font-size="14">ARABIC RTL + MULTILINGUAL / OPTIONAL APP LOCK</text></svg>